<svg xmlns="http://www.w3.org/2000/svg" baseProfile="full" version="1.1" width="300px" height="300px" style="fill: none; width: 300px; height: 300px; stroke-width: 10;"><path d="" style="stroke-width: 10; stroke-linecap: round; stroke-linejoin: round; stroke: black; fill: none;"></path><path d="" style="stroke-width: 10; stroke-linecap: round; stroke-linejoin: round; stroke: black; fill: none;"></path><path d="M15,15 L15,15 L285,15 L285,15 L285,45 L285,45 L165,45 L165,45 L165,75 L165,75 L285,75 L285,75 L285,285 L285,285 L225,285 L225,285 L225,255 L225,255 L255,255 L255,255 L255,105 L255,105 L165,105 L165,105 L165,285 L165,285 L135,285 L135,285 L135,105 L135,105 L45,105 L45,105 L45,285 L45,285 L15,285 L15,285 L15,75 L15,75 L135,75 L135,75 L135,45 L135,45 L15,45 L15,45 L15,15 M60,120 L60,120 L120,135 L120,135 L120,150 L120,150 L60,135 L60,135 L60,120 M60,150 L60,150 L120,165 L120,165 L120,180 L120,180 L60,165 L60,165 L60,150 M180,120 L180,120 L240,135 L240,135 L240,150 L240,150 L180,135 L180,135 L180,120 M180,150 L180,150 L240,165 L240,165 L240,180 L240,180 L180,165 L180,165 L180,150 M30,270 L30,270 L30,90 M270,90 L270,90 L30,90 M270,90 L270,90 L270,270 L270,270 L240,270 M150,30 L150,30 L150,270 M270,30 L270,30 L30,30 " style="stroke-width: 10; stroke-linecap: round; stroke-linejoin: round; stroke: black; fill: none;"></path></svg>