<svg id="SvgjsSvg1001" width="400" height="400" xmlns="http://www.w3.org/2000/svg" version="1.1" xmlns:xlink="http://www.w3.org/1999/xlink" xmlns:svgjs="http://svgjs.com/svgjs"><defs id="SvgjsDefs1002"></defs><polygon id="SvgjsPolygon1008" points="0,400 -75,400 25,340.9536 125,206.95039999999997 225,93.0496 325,-40.95360000000001 400,0 400,400 0,400" fill="#ffffff"></polygon><polygon id="SvgjsPolygon1009" points="0,400 -63.28125,400.8898931507299 36.71875,281.83114189034416 136.71875,162.9641994385742 236.71875,117.6478873924183 336.71875,74.95352264087998 400,0 400,400 0,400" fill="#eeeeee"></polygon><polygon id="SvgjsPolygon1010" points="0,400 -51.5625,373.9519553659174 48.4375,338.8853214194713 148.4375,267.43130395668004 248.4375,97.27288675783674 348.4375,-40.81616887795566 400,0 400,400 0,400" fill="#dddddd"></polygon><polygon id="SvgjsPolygon1011" points="0,400 -39.84375,449.69922006637086 60.15625,281.23135784903826 160.15625,164.4909521092415 260.15625,99.52162517553725 360.15625,0 400,0 400,400 0,400" fill="#cccccc"></polygon><polygon id="SvgjsPolygon1012" points="0,400 -28.125,375.4955093276494 71.875,300 171.875,200 271.875,100 371.875,0 400,0 400,400 0,400" fill="#bbbbbb"></polygon><polygon id="SvgjsPolygon1013" points="0,400 -16.40625,400 83.59375,300 183.59375,200 283.59375,100 383.59375,3.1340722050214 400,0 400,400 0,400" fill="#aaaaaa"></polygon><polygon id="SvgjsPolygon1014" points="0,400 -4.6875,400 95.3125,300 195.3125,212.11747336862794 295.3125,139.995638272913 395.3125,-7.957874313105805 400,0 400,400 0,400" fill="#999999"></polygon><polygon id="SvgjsPolygon1015" points="0,400 7.03125,424.5044906723505 107.03125,332.27571162471963 207.03125,180.51939144742974 307.03125,108.15993621896166 407.03125,5.386296167052896 400,0 400,400 0,400" fill="#888888"></polygon><polygon id="SvgjsPolygon1016" points="0,400 18.75,378.42919323692496 118.75,318.9438750209561 218.75,189.6068035094474 318.75,96.43565509062347 418.75,16.558811705608825 400,0 400,400 0,400" fill="#777777"></polygon><polygon id="SvgjsPolygon1017" points="0,400 30.46875,379.4630272398185 130.46875,310.33115482673196 230.46875,202.7185010462524 330.46875,59.137281216734856 430.46875,-8.54180947627547 400,0 400,400 0,400" fill="#666666"></polygon><polygon id="SvgjsPolygon1018" points="0,400 42.1875,386.45262567870947 142.1875,261.92692948557794 242.1875,198.53655115324844 342.1875,83.91112750483914 442.1875,-38.23546299879041 400,0 400,400 0,400" fill="#555555"></polygon><polygon id="SvgjsPolygon1019" points="0,400 53.90625,400 153.90625,271.43039999999996 253.90625,171.73760000000007 353.90625,135.21279999999985 453.90625,69.52320000000003 400,0 400,400 0,400" fill="#444444"></polygon><polygon id="SvgjsPolygon1020" points="0,400 65.625,386.45262567870924 165.625,356.4043211084461 265.625,253.12467305658686 365.625,85.27901030108491 465.625,1.1926183879638965 400,0 400,400 0,400" fill="#333333"></polygon><polygon id="SvgjsPolygon1021" points="0,400 77.34375,431.55911650798396 177.34375,278.1982975330796 277.34375,214.2941336098502 377.34375,97.27288675783709 477.34375,-40.81616887795568 400,0 400,400 0,400" fill="#222222"></polygon><polygon id="SvgjsPolygon1022" points="0,400 89.0625,421.57080676307504 189.0625,281.23135784903826 289.0625,164.4909521092415 389.0625,99.52162517553725 489.0625,-20.28073201069553 400,0 400,400 0,400" fill="#111111"></polygon><polygon id="SvgjsPolygon1023" points="0,400 100.78125,375.4955093276493 200.78125,299.9342325047797 300.78125,167.70667479448923 400.78125,76.28333843519896 500.78125,32.275711624719484 400,0 400,400 0,400" fill="#000000"></polygon></svg>
