<svg xmlns="http://www.w3.org/2000/svg" baseProfile="full" version="1.1" width="300px" height="300px" style="fill: none; width: 300px; height: 300px; stroke-width: 10;"><path d="" style="stroke-width: 10; stroke-linecap: round; stroke-linejoin: round; stroke: black; fill: none;"></path><path d="" style="stroke-width: 10; stroke-linecap: round; stroke-linejoin: round; stroke: black; fill: none;"></path><path d="M15,60 L15,60 L45,60 L45,60 L45,240 L45,240 L135,240 L135,240 L135,15 L135,15 L165,15 L165,15 L165,240 L165,240 L255,240 L255,240 L255,60 L255,60 L285,60 L285,60 L285,285 L285,285 L255,285 L255,285 L255,270 L255,270 L45,270 L45,270 L45,285 L45,285 L15,285 L15,285 L15,60 M30,75 L30,75 L30,270 M30,255 L30,255 L270,255 M270,270 L270,270 L270,75 M150,255 L150,255 L150,30 " style="stroke-width: 10; stroke-linecap: round; stroke-linejoin: round; stroke: black; fill: none;"></path></svg>